<?xml version="1.0" encoding="UTF-8" ?>
<svg version="1.1" width="64" height="64" xmlns="http://www.w3.org/2000/svg" shape-rendering="crispEdges">
<rect x="48" y="16" width="7" height="4" fill="#000000" />
<rect x="7" y="17" width="5" height="4" fill="#000000" />
<rect x="47" y="17" width="1" height="9" fill="#000000" />
<rect x="55" y="17" width="1" height="6" fill="#000000" />
<rect x="4" y="18" width="3" height="5" fill="#000000" />
<rect x="12" y="18" width="1" height="7" fill="#000000" />
<rect x="56" y="18" width="1" height="6" fill="#000000" />
<rect x="2" y="19" width="2" height="15" fill="#000000" />
<rect x="13" y="19" width="1" height="14" fill="#000000" />
<rect x="46" y="19" width="1" height="12" fill="#000000" />
<rect x="57" y="19" width="1" height="7" fill="#000000" />
<rect x="1" y="20" width="1" height="44" fill="#000000" />
<rect x="14" y="20" width="1" height="13" fill="#000000" />
<rect x="45" y="20" width="1" height="12" fill="#000000" />
<rect x="48" y="20" width="2" height="2" fill="#000000" />
<rect x="50" y="20" width="4" height="4" fill="#81AD55" />
<rect x="54" y="20" width="1" height="1" fill="#000000" />
<rect x="58" y="20" width="1" height="8" fill="#000000" />
<rect x="0" y="21" width="1" height="43" fill="#000000" />
<rect x="7" y="21" width="2" height="1" fill="#000000" />
<rect x="9" y="21" width="1" height="5" fill="#81AD55" />
<rect x="10" y="21" width="2" height="1" fill="#000000" />
<rect x="15" y="21" width="1" height="12" fill="#000000" />
<rect x="54" y="21" width="1" height="4" fill="#81AD55" />
<rect x="59" y="21" width="1" height="10" fill="#000000" />
<rect x="7" y="22" width="2" height="3" fill="#81AD55" />
<rect x="10" y="22" width="1" height="42" fill="#81AD55" />
<rect x="11" y="22" width="1" height="1" fill="#000000" />
<rect x="44" y="22" width="1" height="11" fill="#000000" />
<rect x="48" y="22" width="1" height="1" fill="#000000" />
<rect x="49" y="22" width="1" height="4" fill="#81AD55" />
<rect x="60" y="22" width="1" height="42" fill="#000000" />
<rect x="4" y="23" width="2" height="1" fill="#000000" />
<rect x="6" y="23" width="1" height="3" fill="#81AD55" />
<rect x="11" y="23" width="1" height="21" fill="#81AD55" />
<rect x="16" y="23" width="1" height="10" fill="#000000" />
<rect x="48" y="23" width="1" height="17" fill="#81AD55" />
<rect x="55" y="23" width="1" height="41" fill="#81AD55" />
<rect x="4" y="24" width="2" height="3" fill="#81AD55" />
<rect x="17" y="24" width="1" height="9" fill="#000000" />
<rect x="50" y="24" width="1" height="1" fill="#81AD55" />
<rect x="51" y="24" width="3" height="6" fill="#000000" />
<rect x="56" y="24" width="1" height="40" fill="#81AD55" />
<rect x="61" y="24" width="1" height="40" fill="#000000" />
<rect x="7" y="25" width="2" height="5" fill="#000000" />
<rect x="12" y="25" width="1" height="2" fill="#81AD55" />
<rect x="18" y="25" width="1" height="8" fill="#000000" />
<rect x="43" y="25" width="1" height="8" fill="#000000" />
<rect x="50" y="25" width="1" height="4" fill="#000000" />
<rect x="54" y="25" width="1" height="4" fill="#000000" />
<rect x="6" y="26" width="1" height="5" fill="#000000" />
<rect x="9" y="26" width="1" height="3" fill="#000000" />
<rect x="47" y="26" width="1" height="14" fill="#81AD55" />
<rect x="49" y="26" width="1" height="2" fill="#000000" />
<rect x="57" y="26" width="1" height="38" fill="#81AD55" />
<rect x="4" y="27" width="1" height="37" fill="#81AD55" />
<rect x="5" y="27" width="1" height="3" fill="#000000" />
<rect x="12" y="27" width="1" height="5" fill="#000000" />
<rect x="62" y="27" width="1" height="37" fill="#000000" />
<rect x="19" y="28" width="5" height="4" fill="#000000" />
<rect x="26" y="28" width="5" height="4" fill="#000000" />
<rect x="49" y="28" width="1" height="12" fill="#81AD55" />
<rect x="58" y="28" width="1" height="36" fill="#81AD55" />
<rect x="9" y="29" width="1" height="35" fill="#81AD55" />
<rect x="24" y="29" width="2" height="4" fill="#000000" />
<rect x="31" y="29" width="12" height="4" fill="#000000" />
<rect x="50" y="29" width="1" height="12" fill="#81AD55" />
<rect x="54" y="29" width="1" height="35" fill="#81AD55" />
<rect x="63" y="29" width="1" height="35" fill="#000000" />
<rect x="5" y="30" width="1" height="34" fill="#81AD55" />
<rect x="7" y="30" width="1" height="1" fill="#000000" />
<rect x="8" y="30" width="1" height="34" fill="#81AD55" />
<rect x="51" y="30" width="3" height="34" fill="#81AD55" />
<rect x="6" y="31" width="2" height="33" fill="#81AD55" />
<rect x="46" y="31" width="1" height="9" fill="#81AD55" />
<rect x="59" y="31" width="1" height="33" fill="#81AD55" />
<rect x="12" y="32" width="1" height="11" fill="#81AD55" />
<rect x="19" y="32" width="3" height="10" fill="#81AD55" />
<rect x="22" y="32" width="2" height="1" fill="#000000" />
<rect x="26" y="32" width="2" height="1" fill="#000000" />
<rect x="28" y="32" width="1" height="10" fill="#81AD55" />
<rect x="29" y="32" width="2" height="1" fill="#000000" />
<rect x="45" y="32" width="1" height="8" fill="#81AD55" />
<rect x="13" y="33" width="6" height="9" fill="#81AD55" />
<rect x="22" y="33" width="6" height="9" fill="#81AD55" />
<rect x="29" y="33" width="16" height="8" fill="#81AD55" />
<rect x="2" y="34" width="1" height="30" fill="#000000" />
<rect x="3" y="34" width="1" height="22" fill="#81AD55" />
<rect x="45" y="40" width="5" height="4" fill="#000000" />
<rect x="29" y="41" width="12" height="1" fill="#81AD55" />
<rect x="41" y="41" width="4" height="4" fill="#000000" />
<rect x="50" y="41" width="1" height="2" fill="#000000" />
<rect x="13" y="42" width="3" height="1" fill="#81AD55" />
<rect x="16" y="42" width="25" height="4" fill="#000000" />
<rect x="12" y="43" width="4" height="4" fill="#000000" />
<rect x="50" y="43" width="1" height="21" fill="#81AD55" />
<rect x="11" y="44" width="1" height="2" fill="#000000" />
<rect x="45" y="44" width="2" height="1" fill="#000000" />
<rect x="47" y="44" width="3" height="20" fill="#81AD55" />
<rect x="41" y="45" width="2" height="1" fill="#000000" />
<rect x="43" y="45" width="4" height="19" fill="#81AD55" />
<rect x="11" y="46" width="1" height="18" fill="#81AD55" />
<rect x="16" y="46" width="2" height="1" fill="#000000" />
<rect x="18" y="46" width="25" height="18" fill="#81AD55" />
<rect x="12" y="47" width="6" height="17" fill="#81AD55" />
<rect x="3" y="56" width="1" height="8" fill="#000000" />
</svg>